<?xml version="1.0" encoding="UTF-8" standalone="no"?>
<!-- Created with Inkscape (http://www.inkscape.org/) -->

<svg
   xmlns:dc="http://purl.org/dc/elements/1.1/"
   xmlns:cc="http://creativecommons.org/ns#"
   xmlns:rdf="http://www.w3.org/1999/02/22-rdf-syntax-ns#"
   xmlns:svg="http://www.w3.org/2000/svg"
   xmlns="http://www.w3.org/2000/svg"
   xmlns:sodipodi="http://sodipodi.sourceforge.net/DTD/sodipodi-0.dtd"
   xmlns:inkscape="http://www.inkscape.org/namespaces/inkscape"
   width="1280"
   height="720"
   viewBox="0 0 1280 720"
   id="svg4328"
   version="1.1"
   inkscape:version="0.91 r13725"
   sodipodi:docname="bumper_GLiB.svg">
  <defs
     id="defs4330" />
  <sodipodi:namedview
     id="base"
     pagecolor="#e1e1e1"
     bordercolor="#666666"
     borderopacity="1.0"
     inkscape:pageopacity="0"
     inkscape:pageshadow="2"
     inkscape:zoom="0.49497475"
     inkscape:cx="493.8855"
     inkscape:cy="386.93446"
     inkscape:document-units="px"
     inkscape:current-layer="layer2"
     showgrid="false"
     units="px"
     inkscape:window-width="1276"
     inkscape:window-height="755"
     inkscape:window-x="4"
     inkscape:window-y="1"
     inkscape:window-maximized="1" />
  <metadata
     id="metadata4333">
    <rdf:RDF>
      <cc:Work
         rdf:about="">
        <dc:format>image/svg+xml</dc:format>
        <dc:type
           rdf:resource="http://purl.org/dc/dcmitype/StillImage" />
        <dc:title></dc:title>
      </cc:Work>
    </rdf:RDF>
  </metadata>
  <g
     inkscape:groupmode="layer"
     id="layer2"
     inkscape:label="bg">
    <rect
       style="fill:#ffffff;fill-opacity:1;stroke:#ffffff;stroke-width:6.05379438;stroke-linecap:round;stroke-miterlimit:4;stroke-dasharray:none"
       id="rect4163"
       width="1273.9462"
       height="713.94623"
       x="3.0268972"
       y="3.0268748" />
  </g>
  <g
     inkscape:label="GNU Linux Bogor"
     inkscape:groupmode="layer"
     id="layer1"
     transform="translate(0,-332.36216)"
     style="display:inline">
    <rect
       y="460.40143"
       x="415.18201"
       height="439.63596"
       width="439.63599"
       id="rect3058"
       style="opacity:0;fill:#ffffff;fill-opacity:1;stroke:none" />
    <g
       transform="matrix(1.4654533,0,0,1.4654533,-184.91259,-11.66554)"
       style="font-style:normal;font-weight:normal;font-size:12px;line-height:125%;font-family:Sans;letter-spacing:0px;word-spacing:0px;fill:#000000;fill-opacity:1;stroke:none"
       id="text3082">
      <path
         inkscape:connector-curvature="0"
         d="m 454.40363,599.64368 c 2.77999,0 4.42,-1.08 5.3,-1.96 l 0,-5.54 -5.5,0 0,1.36 3.94,0 0,3.66 c -0.78,0.64 -2.06,1.02 -3.12,1.02 -1.16,0 -1.98,-0.24 -2.84,-0.74 -1.52,-0.88 -2.64,-2.64 -2.64,-4.94 0,-2.11999 0.76,-3.74 2.4,-4.82 0.82,-0.54 1.76,-0.82 2.78,-0.82 1.18,0 2.76,0.46 3.74,0.98 l 0.66,-1.24 c -1.34,-0.74 -2.72001,-1.18 -4.56,-1.18 -1.3,0 -2.46,0.3 -3.5,0.92 -1.9,1.12 -3.34,3.38001 -3.34,6.3 0,4.02 2.94,7 6.68,7"
         style="font-variant:normal;font-stretch:normal;font-size:20px;font-family:Sans;-inkscape-font-specification:Sans;letter-spacing:5px"
         id="path3077" />
      <path
         inkscape:connector-curvature="0"
         d="m 467.50331,585.58368 0,13.88 1.66,0 0,-11.64 7.56,11.64 2.1,0 0,-13.88 -1.66,0 0,11.62 -7.56,-11.62 -2.1,0"
         style="font-variant:normal;font-stretch:normal;font-size:20px;font-family:Sans;-inkscape-font-specification:Sans;letter-spacing:5px"
         id="path3079" />
      <path
         inkscape:connector-curvature="0"
         d="m 492.34988,598.20368 c -2.44,0 -3.62,-1.22 -3.62,-3.62 l 0,-9 -1.66,0 0,8.58 c 0,3.66 1.5,5.5 5.28,5.5 3.77999,0 5.28,-1.84 5.28,-5.5 l 0,-8.58 -1.66,0 0,9 c 0,2.4 -1.18001,3.62 -3.62,3.62"
         style="font-variant:normal;font-stretch:normal;font-size:20px;font-family:Sans;-inkscape-font-specification:Sans;letter-spacing:5px"
         id="path3081" />
      <path
         inkscape:connector-curvature="0"
         d="m 509.40269,585.58368 -4.84,14.76 1.66,0 4.84,-14.76 -1.66,0"
         style="font-variant:normal;font-stretch:normal;font-size:20px;font-family:Sans;-inkscape-font-specification:Sans;letter-spacing:5px"
         id="path3083" />
      <path
         inkscape:connector-curvature="0"
         d="m 517.933,585.58368 0,13.88 7.88,0 0,-1.46 -6.22,0 0,-12.42 -1.66,0"
         style="font-variant:normal;font-stretch:normal;font-size:20px;font-family:Sans;-inkscape-font-specification:Sans;letter-spacing:5px"
         id="path3085" />
      <path
         inkscape:connector-curvature="0"
         d="m 532.71113,589.82368 0,9.64 1.66,0 0,-9.64 -1.66,0 m 0,-3.76 0,1.66 1.66,0 0,-1.66 -1.66,0"
         style="font-variant:normal;font-stretch:normal;font-size:20px;font-family:Sans;-inkscape-font-specification:Sans;letter-spacing:5px"
         id="path3087" />
      <path
         inkscape:connector-curvature="0"
         d="m 548.56425,593.32368 0,6.14 1.66,0 0,-6.54 c 0,-2.03999 -1.08,-3.3 -3.16,-3.3 -1.02,0 -2.2,0.32 -3.42,0.96 l -0.32,-0.76 -1.16,0 0,9.64 1.66,0 0,-7.76 c 0.98,-0.46 1.9,-0.7 2.66,-0.7 1.56,0 2.08,0.72001 2.08,2.32"
         style="font-variant:normal;font-stretch:normal;font-size:20px;font-family:Sans;-inkscape-font-specification:Sans;letter-spacing:5px"
         id="path3089" />
      <path
         inkscape:connector-curvature="0"
         d="m 559.56644,596.00368 0,-6.14 -1.66,0 0,6.54 c 0,2.04 1.1,3.3 3.18,3.3 1.02,0 2.18,-0.32 3.4,-0.96 l 0.32,0.72 1.16,0 0,-9.6 -1.66,0 0,7.76 c -0.98,0.46 -1.88,0.7 -2.64,0.7 -1.56,0 -2.1,-0.72 -2.1,-2.32"
         style="font-variant:normal;font-stretch:normal;font-size:20px;font-family:Sans;-inkscape-font-specification:Sans;letter-spacing:5px"
         id="path3091" />
      <path
         inkscape:connector-curvature="0"
         d="m 574.92581,589.82368 -1.92,0 3.48,4.86 -3.38,4.78 1.82,0 2.48,-3.54 2.5,3.54 1.98,0 -3.44,-4.82 3.5,-4.82 -1.86,0 -2.58,3.6 -2.58,-3.6"
         style="font-variant:normal;font-stretch:normal;font-size:20px;font-family:Sans;-inkscape-font-specification:Sans;letter-spacing:5px"
         id="path3093" />
      <path
         inkscape:connector-curvature="0"
         d="m 606.86894,589.00368 c 0,1.58 -1.14,2.36 -3.6,2.36 l -1.84,0 0,-4.3 2.66,0 c 1.68,0 2.78,0.50001 2.78,1.94 m 1.1,6.42 c 0,1.86 -1.6,2.58 -3.48,2.58 l -3.06,0 0,-5.24 2.42,0 c 1.88,0 4.12,0.38001 4.12,2.66 m -1.3,-3.58 c 1.12,-0.54 1.8,-1.78 1.8,-2.92 0,-1.01999 -0.34,-1.86 -0.98,-2.44 -0.68,-0.6 -1.72,-0.9 -2.84,-0.9 l -4.88,0 0,13.88 4.5,0 c 1.74,0 3.24,-0.44 4.18,-1.28 0.88,-0.8 1.16,-1.92 1.16,-2.92 0,-1.81999 -1.36,-3.12 -2.94,-3.42"
         style="font-variant:normal;font-stretch:normal;font-size:20px;font-family:Sans;-inkscape-font-specification:Sans;letter-spacing:5px"
         id="path3095" />
      <path
         inkscape:connector-curvature="0"
         d="m 621.248,590.94368 c 1.96,0 2.98,1.66001 2.98,3.72 0,2.06 -1,3.7 -2.98,3.7 -1.96,0 -2.98,-1.66 -2.98,-3.7 0,-2.03999 1.04,-3.72 2.98,-3.72 m -0.04,8.72 c 2.96,0 4.72,-2.02 4.72,-5.02 0,-3.01999 -1.68,-4.98 -4.66,-4.98 -2.96,0 -4.7,1.98001 -4.7,5 0,3 1.68,5 4.64,5"
         style="font-variant:normal;font-stretch:normal;font-size:20px;font-family:Sans;-inkscape-font-specification:Sans;letter-spacing:5px"
         id="path3097" />
      <path
         inkscape:connector-curvature="0"
         d="m 639.83706,599.00368 0,0.28 c 0,0.62 0,1.1 -0.04,1.38 -0.2,1.74 -1.32,2.8 -3.34,2.8 -0.7,0 -1.46,-0.2 -2.3,-0.5 l -0.44,1.16 c 0.8,0.36 2.00001,0.64 2.94,0.64 1.48,0 2.72,-0.46 3.5,-1.2 0.96,-0.91999 1.34,-1.84 1.34,-3.64 l 0,-10.1 -1.18,0 -0.2,0.56 -0.46,-0.2 c -0.79999,-0.36 -1.56,-0.54 -2.28,-0.54 -0.56,0 -1.1,0.1 -1.62,0.32 -1.75999,0.74 -2.9,2.38001 -2.9,4.84 0,1.26 0.32,2.24 0.88,3.06 0.74,1.08 1.88001,1.78 3.54,1.78 0.96,0 1.74001,-0.2 2.56,-0.64 m -5.32,-4.42 c 0,-2.09999 1.00001,-3.62 3.08,-3.62 0.66,0 1.40001,0.16 2.24,0.5 l 0,6.34 c -0.62,0.34 -1.32,0.54 -2.16,0.54 -2.09999,0 -3.16,-1.68 -3.16,-3.76"
         style="font-variant:normal;font-stretch:normal;font-size:20px;font-family:Sans;-inkscape-font-specification:Sans;letter-spacing:5px"
         id="path3099" />
      <path
         inkscape:connector-curvature="0"
         d="m 653.63081,590.94368 c 1.96,0 2.98,1.66001 2.98,3.72 0,2.06 -1,3.7 -2.98,3.7 -1.95999,0 -2.98,-1.66 -2.98,-3.7 0,-2.03999 1.04001,-3.72 2.98,-3.72 m -0.04,8.72 c 2.96,0 4.72,-2.02 4.72,-5.02 0,-3.01999 -1.68,-4.98 -4.66,-4.98 -2.95999,0 -4.7,1.98001 -4.7,5 0,3 1.68001,5 4.64,5"
         style="font-variant:normal;font-stretch:normal;font-size:20px;font-family:Sans;-inkscape-font-specification:Sans;letter-spacing:5px"
         id="path3101" />
      <path
         inkscape:connector-curvature="0"
         d="m 669.87988,589.66368 c -0.94,0 -1.82,0.32 -2.68,0.98 l -0.32,-0.8 -1.2,0 0,9.62 1.66,0 0,-7.66 c 0.7,-0.46 1.42,-0.7 2.06,-0.7 0.62,0 1.1,0.12 1.6,0.32 l 0.2,0 0,-1.58 c -0.42,-0.12 -0.86,-0.18 -1.32,-0.18"
         style="font-variant:normal;font-stretch:normal;font-size:20px;font-family:Sans;-inkscape-font-specification:Sans;letter-spacing:5px"
         id="path3103" />
    </g>
  </g>
  <g
     inkscape:groupmode="layer"
     id="layer4"
     inkscape:label="Kujang"
     style="display:inline">
    <path
       transform="translate(0,-332.36216)"
       inkscape:connector-curvature="0"
       id="path3064"
       d="m 608.57495,491.53011 c 6.90416,25.39926 7.83346,53.73639 -2.79352,78.26435 -2.33717,5.7173 -8.08232,6.81463 -13.23488,8.01419 -9.26137,3.84305 -13.58239,16.04521 -8.88431,24.91271 -6.27191,5.7541 -7.07955,15.84663 -4.21318,22.80612 -6.50627,5.79601 -6.24536,15.956 -2.65613,22.9435 -6.33302,5.41072 -8.35873,15.25569 -3.48045,22.43975 2.1683,3.79198 7.09662,5.78249 4.90011,10.94511 -1.74964,27.47498 -5.69626,58.18387 10.71612,82.15697 6.43015,12.25496 17.31334,21.64246 28.9885,28.30157 -3.5785,9.53689 -6.6396,19.4377 -7.83236,29.3439 7.11288,3.9715 18.49561,4.62792 27.57019,5.46062 4.93623,0.72238 7.68281,-2.11662 7.18988,-7.0067 0.60365,-8.73497 -1.10649,-17.4173 -1.83182,-26.0118 15.80773,-6.97778 29.07615,-19.91337 37.40618,-34.9029 3.23359,-6.18605 -10.65621,1.75468 -14.92063,1.88441 -13.50147,5.54406 -33.35872,6.77493 -41.21588,-8.15159 -11.54557,-23.21232 -4.23719,-50.55336 3.62877,-73.85499 10.93274,-32.56139 27.78377,-62.58753 43.86108,-92.65714 -6.60695,-7.30807 -16.75844,-12.57781 -18.91351,-23.17248 -4.69847,-24.74047 -10.24769,-51.86957 -30.17918,-69.15106 -4.51182,-3.96049 -10.09757,-6.06542 -15.61623,-8.24318 0.50375,1.89287 1.0075,3.78575 1.51125,5.67864 z m 44.60473,93.88058 c 7.08575,-0.3017 6.37736,11.58529 -0.64113,10.39556 -6.39375,-0.71669 -5.79939,-10.44235 0.64113,-10.39556 z m -55.68722,3.48045 c 7.66036,-0.1228 4.73413,12.59512 -2.15239,9.0217 -4.40112,-2.12907 -2.80864,-9.12626 2.15239,-9.0217 z m -3.89261,22.0276 c 7.66036,-0.12281 4.73413,12.59512 -2.15239,9.0217 -4.40112,-2.12907 -2.80864,-9.12626 2.15239,-9.0217 z m -3.61784,22.02759 c 7.66036,-0.1228 4.73413,12.59512 -2.15239,9.0217 -4.40112,-2.12907 -2.80864,-9.12626 2.15239,-9.0217 z m -3.38886,23.81362 c 7.66036,-0.1228 4.73413,12.59512 -2.15239,9.0217 -4.40112,-2.12907 -2.80864,-9.12626 2.15239,-9.0217 z"
       style="opacity:0.5;fill:#8c8c8c" />
    <path
       transform="translate(0,-332.36216)"
       inkscape:connector-curvature="0"
       id="path3072"
       d="m 611.41426,490.79738 c 1.23133,4.51044 2.43773,9.37783 3.34307,14.37976 0.033,0.18211 0.0593,0.36712 0.0916,0.54954 0.0453,0.28942 0.0936,0.58043 0.13731,0.87012 0.67092,4.45278 1.10906,8.93103 1.37386,13.37226 0.006,0.16688 0.0415,0.33714 0.0459,0.50375 0.006,0.0448 -0.006,0.0926 0,0.13731 0.0213,0.38304 0.0276,0.76252 0.0459,1.14489 0.0397,0.83881 0.11211,1.68405 0.13731,2.51874 0.0103,0.32126 -0.007,0.64114 0,0.96171 0.028,1.1982 0.0488,2.38545 0.0459,3.57204 -0.003,1.35389 -0.0492,2.69532 -0.0916,4.03 -0.004,0.15098 0.006,0.30724 0,0.45795 -0.0415,1.17938 -0.11064,2.36554 -0.18318,3.52625 -0.0739,1.18033 -0.1228,2.3684 -0.22898,3.52624 -0.0324,0.35425 -0.10185,0.70134 -0.13731,1.0533 -0.0478,0.4744 -0.084,0.94961 -0.13731,1.41966 -0.064,0.56524 -0.15703,1.13586 -0.22898,1.69443 -0.0589,0.4564 -0.11899,0.92213 -0.18318,1.37386 -0.11094,0.78031 -0.2396,1.57015 -0.36636,2.33557 -0.0353,0.21277 -0.0551,0.42955 -0.0916,0.64113 -0.17104,0.99185 -0.3516,1.96704 -0.54954,2.93091 -1.87899,8.85049 -4.35457,23.5069 -15.15828,27.70621 -0.35916,-0.016 -0.70311,-0.0117 -1.0533,0 -0.0149,5e-4 -0.0309,-5.4e-4 -0.0459,0 -0.33469,0.0132 -0.68152,0.0539 -1.0075,0.0916 -0.0151,10e-4 -0.0309,-10e-4 -0.0459,0 -0.32506,0.0387 -0.64584,0.075 -0.96171,0.13731 -0.0151,0.003 -0.0308,-0.003 -0.0459,0 -0.31527,0.0633 -0.6103,0.14333 -0.9159,0.22898 -0.0315,0.009 -0.0602,0.0369 -0.0916,0.0459 -0.28705,0.0829 -0.5921,0.17278 -0.87011,0.27477 -0.0315,0.0117 -0.0602,0.0342 -0.0916,0.0459 -0.27589,0.10361 -0.55782,0.19908 -0.82432,0.32057 -0.33466,0.15326 -0.6426,0.32388 -0.9617,0.50375 -0.24738,0.13892 -0.49507,0.2582 -0.73273,0.41216 -0.0456,0.0296 -0.0923,0.0616 -0.13731,0.0916 -0.49477,0.32902 -0.97054,0.70983 -1.41966,1.09909 -0.0485,0.0421 -0.0892,0.0945 -0.13731,0.13731 -0.43621,0.38851 -0.84787,0.79765 -1.23648,1.23648 -0.43348,0.48899 -0.82043,1.01466 -1.19068,1.55704 -0.34388,0.50377 -0.67598,1.01528 -0.9617,1.55705 -0.0163,0.0308 -0.0299,0.0607 -0.0459,0.0916 -0.23814,0.45848 -0.4468,0.93953 -0.64114,1.41965 -0.0554,0.13717 -0.13145,0.27338 -0.18318,0.41216 -0.0168,0.0448 -0.0294,0.0925 -0.0459,0.13732 -0.14376,0.39523 -0.25323,0.78514 -0.36636,1.19068 -0.0511,0.18404 -0.0926,0.36375 -0.13731,0.54954 -0.0336,0.13922 -0.0617,0.27206 -0.0916,0.41216 -0.0384,0.17967 -0.0593,0.36862 -0.0916,0.54955 -0.0727,0.40807 -0.14259,0.82376 -0.18319,1.23647 -0.0407,0.41305 -0.0843,0.82117 -0.0916,1.23648 -0.003,0.16888 -0.003,0.33478 0,0.50375 6.9e-4,0.046 -0.001,0.0914 0,0.13731 0.009,0.38421 0.0526,0.76174 0.0916,1.14489 0.0314,0.30644 0.0407,0.61124 0.0916,0.9159 0.0963,0.57991 0.24299,1.17174 0.41216,1.74023 0.0576,0.19359 0.11695,0.4036 0.18318,0.59534 0.0426,0.12295 0.091,0.24429 0.13732,0.36636 0.004,0.0132 -0.006,0.0327 0,0.0459 0.11562,0.30301 0.27396,0.5731 0.41216,0.87012 0.0942,0.20261 0.16984,0.39593 0.27477,0.59534 0.0579,0.10976 0.12207,0.21183 0.18318,0.32056 0.11328,0.202 0.24165,0.39724 0.36636,0.59534 0.0645,0.10244 0.11563,0.21916 0.18319,0.32057 -0.0873,0.40721 -0.21096,0.7946 -0.32057,1.19068 -0.10845,0.0929 -0.21389,0.17732 -0.32057,0.27478 -0.22552,0.20564 -0.42429,0.41652 -0.64114,0.64113 -0.12075,0.12486 -0.24854,0.23594 -0.36636,0.36636 -0.19772,0.21853 -0.40649,0.45378 -0.59534,0.68694 -0.12149,0.15006 -0.24898,0.30223 -0.36636,0.45795 -0.16765,0.22219 -0.2989,0.45401 -0.45796,0.68693 -0.12632,0.18497 -0.24575,0.3583 -0.36636,0.54955 -0.14244,0.22549 -0.27822,0.45342 -0.41216,0.68693 -0.12236,0.21366 -0.25147,0.42134 -0.36636,0.64113 -0.11636,0.22189 -0.21242,0.45939 -0.32057,0.68693 -0.21268,0.44835 -0.41644,0.90702 -0.59534,1.37387 -0.10595,0.27643 -0.22737,0.54265 -0.32057,0.82431 -0.035,0.10522 -0.0585,0.21462 -0.0916,0.32057 -0.12295,0.39478 -0.22429,0.78864 -0.32057,1.19068 -0.0441,0.18313 -0.0989,0.36528 -0.13731,0.54955 -0.0684,0.33091 -0.13424,0.67403 -0.18318,1.0075 -0.0226,0.15343 -0.0276,0.3042 -0.0459,0.45795 -0.007,0.0605 0.006,0.12251 0,0.18318 -0.0478,0.44317 -0.0813,0.88483 -0.0916,1.32807 -0.009,0.38182 -0.0199,0.76525 0,1.14489 0.0254,0.47892 0.10874,0.94797 0.18318,1.41965 0.004,0.0303 -0.004,0.0613 0,0.0916 0.0151,0.0912 0.0289,0.18392 0.0459,0.27478 0.0777,0.41454 0.15607,0.83152 0.27477,1.23647 0.14523,0.50015 0.33856,0.98469 0.54955,1.46546 0.0192,0.0435 0.0259,0.0941 0.0459,0.13731 0.41071,0.905 0.93644,1.75846 1.60284,2.56454 0.27015,0.39283 0.23969,0.95848 -0.27477,1.28227 -0.80935,0.53107 -1.54988,1.14996 -2.19818,1.83182 -0.32414,0.34094 -0.63246,0.68095 -0.91591,1.0533 -0.56689,0.74467 -1.0173,1.58203 -1.41965,2.42715 -0.20118,0.42257 -0.38993,0.84089 -0.54955,1.28227 -1.11728,3.08971 -1.20544,6.56466 -0.22898,9.75443 0.13951,0.45568 0.27457,0.93292 0.45796,1.37386 0.18338,0.44094 0.41356,0.86027 0.64113,1.28227 0.22757,0.42201 0.4607,0.8376 0.73273,1.23648 0.65708,1.37956 -0.0371,4.16863 -2.24397,5.72442 -6.9695,6.62633 -3.75069,17.59586 3.38886,22.34817 1.46998,1.61422 -0.0791,8.67822 0,13.09749 -0.8287,7.61901 -1.21091,15.98217 -1.19069,25.55384 0.055,25.97459 2.62097,35.22547 15.0667,54.26757 5.63072,8.61504 12.41967,14.88679 22.02759,20.28736 2.27172,1.27694 4.28513,2.55694 4.48795,2.88512 0.10141,0.16408 -0.0571,1.03631 -0.41216,2.28977 -0.17749,0.62673 -0.42548,1.32107 -0.68693,2.10659 -0.26145,0.78551 -0.54479,1.65017 -0.87011,2.51874 -0.51547,1.37628 -1.00511,2.76502 -1.46545,4.12159 -0.0154,0.045 -0.0305,0.0923 -0.0459,0.13731 -0.44242,1.30829 -0.85392,2.5951 -1.23648,3.84682 -0.0276,0.0898 -0.0645,0.18523 -0.0916,0.27477 -0.36224,1.19508 -0.70814,2.37264 -1.0075,3.48045 -0.0317,0.11695 -0.0607,0.2506 -0.0916,0.36637 -0.28074,1.05493 -0.51751,2.08106 -0.73273,3.02249 -0.22931,1.00063 -0.40119,1.9077 -0.54954,2.74773 -0.007,0.0431 -0.0385,0.0947 -0.0459,0.13731 -0.0271,0.15615 -0.0676,0.35406 -0.0916,0.50375 -0.10053,0.64594 -0.18956,1.27687 -0.22898,1.78602 -0.0103,0.13834 -0.0399,0.33046 -0.0459,0.45796 -0.006,0.14766 -6.3e-4,0.32621 0,0.45795 2.5e-4,0.12222 -0.006,0.25821 0,0.36636 0.007,0.10728 0.0325,0.22854 0.0459,0.32057 0.0258,0.18565 0.0866,0.33544 0.13732,0.45796 0.0604,0.14508 0.13203,0.22465 0.22897,0.27477 -0.018,0.0312 -0.0273,0.0601 -0.0459,0.0916 0.8955,0.37614 22.18481,4.90702 27.11089,3.34306 0.13673,0.0265 0.25316,0.003 0.32057,-0.0459 0.003,-0.0149 -0.003,-0.0309 0,-0.0459 0.17776,-0.83237 0.3087,-1.66463 0.41216,-2.51874 10e-4,-0.0149 -10e-4,-0.0309 0,-0.0459 0.10214,-0.85472 0.18867,-1.73859 0.22897,-2.61034 6.9e-4,-0.0151 -6.7e-4,-0.0308 0,-0.0459 0.0793,-1.75963 0.0514,-3.55764 -0.0459,-5.35807 -8.2e-4,-0.0151 8.4e-4,-0.0308 0,-0.0459 -0.19805,-3.63145 -0.66395,-7.28973 -0.9617,-10.85351 -1.27612,-8.80777 -1.22947,-10.21786 0.18318,-10.67033 7.70937,-2.46925 19.28957,-11.076 26.33237,-19.55465 5.22185,-6.28642 9.01538,-10.49346 8.60953,-10.8993 0.0466,-0.0822 0.136,-0.16655 0.13732,-0.22898 -3.99739,1.20872 -5.99029,1.62713 -11.90681,3.61784 -36.0542,11.94848 -52.45671,-8.99881 -48.26837,-52.25257 6.00943,-32.20819 20.22447,-67.52117 45.52064,-112.9315 3.77214,-6.77155 6.86932,-12.44832 6.86932,-12.63953 0,-0.1912 -2.16821,-1.95115 -4.80852,-3.93841 -10.10448,-7.60523 -13.95739,-15.14908 -16.39476,-31.91939 -2.86596,-18.3344 -14.07659,-51.73963 -35.85781,-60.08358 z m 41.76542,91.68241 c 4.49661,0 8.10579,3.65497 8.10579,8.15158 0,4.49661 -3.60918,8.15158 -8.10579,8.15158 -4.49661,0 -8.15158,-3.65497 -8.15158,-8.15158 0,-4.49661 3.65497,-8.15158 8.15158,-8.15158 z m -55.68722,3.48045 c 4.24906,0 7.69363,3.44456 7.69363,7.69363 0,4.24908 -3.44457,7.69363 -7.69363,7.69363 -4.24909,0 -7.69363,-3.44455 -7.69363,-7.69363 0,-4.24907 3.44454,-7.69363 7.69363,-7.69363 z m -3.89261,22.02759 c 4.24906,0 7.69363,3.44457 7.69363,7.69363 0,4.24908 -3.44457,7.69363 -7.69363,7.69363 -4.24909,0 -7.69363,-3.44455 -7.69363,-7.69363 0,-4.24906 3.44454,-7.69363 7.69363,-7.69363 z m -3.61784,22.0276 c 4.24906,0 7.69363,3.44456 7.69363,7.69363 0,4.24908 -3.44457,7.69363 -7.69363,7.69363 -4.24908,0 -7.69363,-3.44455 -7.69363,-7.69363 0,-4.24907 3.44455,-7.69363 7.69363,-7.69363 z m -3.38886,23.81361 c 4.24906,0 7.69363,3.44457 7.69363,7.69363 0,4.24909 -3.44457,7.69363 -7.69363,7.69363 -4.24908,0 -7.69363,-3.44454 -7.69363,-7.69363 0,-4.24906 3.44455,-7.69363 7.69363,-7.69363 z"
       style="fill:#8c8c8c" />
    <path
       transform="translate(0,-332.36216)"
       sodipodi:nodetypes="sccccssssccscssssssscccccccccccsssssssssssssssssssss"
       inkscape:connector-curvature="0"
       id="path3074"
       d="m 613.64285,493.5451 c 0.0311,0.0378 0.0621,0.0536 0.0916,0.0916 31.69346,43.34951 19.36595,96.4698 5.40386,142.56112 -13.99531,45.95666 -18.23427,66.41521 -18.27237,88.33936 -0.36699,20.15329 9.56736,46.96311 31.32406,47.21507 11.97156,-0.20777 24.26636,-2.68975 36.54475,-7.41886 2.88773,-1.11223 7.1927,-3.34024 7.37306,-3.15988 0.40584,0.40584 -3.38769,4.61288 -8.60954,10.89931 -7.04279,8.47864 -18.623,17.08539 -26.33236,19.55464 -1.41266,0.45247 -1.4593,1.86256 -0.18319,10.67033 0.59681,7.14309 1.82849,14.73557 0.36637,21.52385 -0.53888,0.39253 -3.41027,-1.80024 -6.82352,-3.9842 -3.41326,-2.18395 -6.48446,-3.93988 -6.82352,-3.93841 -0.33906,10e-4 -3.40706,1.01757 -6.82351,2.28977 -3.41646,1.2722 -6.46325,2.33557 -6.77773,2.33557 -1.73713,0 0.81727,-11.46199 5.0833,-22.85192 1.30127,-3.47431 2.17202,-6.58693 1.9692,-6.9151 -0.20282,-0.32818 -2.21624,-1.60818 -4.48795,-2.88511 -9.60792,-5.40058 -16.39687,-11.67233 -22.0276,-20.28737 -12.44573,-19.0421 -15.01173,-28.29298 -15.06669,-54.26757 -0.0202,-9.57167 0.36198,-17.93483 1.19068,-25.55384 -0.0791,-4.41927 1.46998,-11.48327 0,-13.09749 -7.13954,-4.75231 -10.35835,-15.72184 -3.38886,-22.34817 2.20693,-1.55579 2.90106,-4.34493 2.24398,-5.7245 -4.35252,-6.38212 -2.99442,-15.99304 3.48045,-20.24157 0.51446,-0.32379 0.54491,-0.88944 0.27477,-1.28227 -5.5718,-6.7398 -1.77268,-17.58279 4.03,-21.84441 -6.9686,-9.36255 0.12515,-24.24306 11.86101,-23.72203 10.80372,-4.19931 13.27929,-18.85572 15.15828,-27.70621 3.143,-15.30533 2.88824,-34.2607 -0.68693,-52.11518 -0.47327,-2.18845 -1.4236,-5.69884 -2.34691,-8.88931 z m -16.07419,91.36184 c -4.85609,0 -8.79272,3.93664 -8.79272,8.79272 0,4.85609 3.93663,8.79272 8.79272,8.79272 4.85609,0 8.79272,-3.93663 8.79272,-8.79272 0,-4.85608 -3.93663,-8.79272 -8.79272,-8.79272 z m -3.9842,22.0276 c -4.85609,0 -8.79272,3.93663 -8.79272,8.79272 0,4.85608 3.93663,8.79272 8.79272,8.79272 4.85609,0 8.79272,-3.93664 8.79272,-8.79272 0,-4.85609 -3.93663,-8.79272 -8.79272,-8.79272 z m -3.57204,22.11918 c -4.85609,0 -8.79272,3.93664 -8.79272,8.79272 0,4.85609 3.93663,8.79272 8.79272,8.79272 4.85608,0 8.79272,-3.93663 8.79272,-8.79272 0,-4.85608 -3.93664,-8.79272 -8.79272,-8.79272 z m -3.43466,23.76782 c -4.85609,0 -8.79272,3.93664 -8.79272,8.79272 0,4.85609 3.93663,8.79272 8.79272,8.79272 4.85609,0 8.79272,-3.93663 8.79272,-8.79272 0,-4.85608 -3.93663,-8.79272 -8.79272,-8.79272 z"
       style="fill:#535353" />
  </g>
  <g
     inkscape:groupmode="layer"
     id="layer3"
     inkscape:label="G"
     style="display:inline">
    <path
       transform="translate(0,-332.36216)"
       d="m 500.86457,798.12448 c -22.52326,-4.50465 -40.18988,-18.37049 -52.99992,-41.59755 -3.51927,-8.02386 -5.84197,-16.47006 -6.96813,-25.33861 -0.98539,-8.86846 -0.63347,-17.87773 1.05579,-27.02786 1.82999,-9.14997 5.06769,-17.38501 9.71312,-24.70515 6.61617,-11.6838 14.9216,-20.48191 24.91631,-26.39438 9.99461,-6.05297 22.59353,-10.76877 37.79676,-14.1474 4.50456,-0.98524 8.09419,-1.40754 10.76891,-1.26693 2.67454,0.14098 5.13801,0.91516 7.39043,2.32271 2.39299,1.54862 4.01185,3.16746 4.85657,4.85656 0.84451,1.68939 0.70375,2.95632 -0.42232,3.8008 -0.70394,0.56322 -1.47819,1.19667 -2.3227,1.9004 -2.11164,0.98552 -5.6309,2.60437 -10.55775,4.85656 -4.78628,2.25246 -8.44629,4.08246 -10.98007,5.49004 -2.53393,1.26704 -5.70126,2.95629 -9.50197,5.06771 -3.80086,2.11168 -7.17935,4.36399 -10.13546,6.75697 -2.95623,2.3932 -5.77161,4.99745 -8.4462,7.81274 -6.47547,7.03861 -10.83934,16.11826 -13.09161,27.23901 -2.11159,10.98013 -2.46351,21.81942 -1.05579,32.51789 0.84459,6.05315 2.95615,11.96548 6.33466,17.73702 3.51921,5.7716 7.88307,9.78354 13.09161,12.03584 4.78613,2.3931 9.6427,3.8008 14.56972,4.2231 5.06764,0.28156 9.57228,-0.35191 13.51392,-1.9004 4.08224,-1.54844 7.81264,-3.73038 11.19121,-6.5458 3.37839,-2.81538 5.91224,-6.12347 7.60159,-9.9243 1.82991,-3.80075 2.95607,-7.81269 3.37848,-12.03584 0.4222,-4.36381 -0.35203,-8.86845 -2.32271,-13.51392 -3.2378,-3.9415 -8.93899,-7.03844 -17.10355,-9.29082 -8.16475,-2.39302 -13.93632,-2.39302 -17.31473,0 -1.6893,0.98545 -2.6043,3.37855 -2.74501,7.17927 -0.14083,3.23776 0.98532,5.49009 3.37848,6.75696 2.53378,1.26699 5.2788,1.61892 8.23504,1.05579 3.09687,-0.56303 5.70111,-1.61882 7.81274,-3.16733 2.11147,-1.26689 4.15263,-0.91496 6.1235,1.05577 2.11146,1.83006 3.16724,3.87123 3.16733,6.1235 -0.14083,3.23776 -1.61894,5.98277 -4.43425,8.23505 -2.67472,2.11159 -5.98282,3.58966 -9.92429,4.43426 -9.57244,1.5485 -17.59633,-2.11153 -24.07168,-10.98007 -5.63086,-7.88307 -7.7424,-15.97734 -6.33466,-24.28284 1.26689,-8.02381 5.77151,-12.95077 13.51393,-14.78085 23.08621,-0.70377 41.38629,5.91241 54.90032,19.84858 5.63068,5.49009 9.07955,12.38781 10.3466,20.6932 1.26681,8.1647 0.14068,15.6255 -3.37847,22.38244 -6.194,10.27622 -14.85136,18.79281 -25.97208,25.54976 -10.98016,6.89773 -22.17137,9.22043 -33.57367,6.96812"
       style="font-style:normal;font-variant:normal;font-weight:bold;font-stretch:normal;font-size:144.08859253px;line-height:125%;font-family:kabayan;-inkscape-font-specification:'kabayan Bold';letter-spacing:0px;word-spacing:0px;fill:#dc3535;fill-opacity:1;stroke:none"
       id="path3076"
       inkscape:connector-curvature="0" />
    <path
       transform="translate(0,-332.36216)"
       inkscape:connector-curvature="0"
       id="path3068"
       d="m 522.89172,634.73236 c -28.00692,3.59206 -57.99686,15.29158 -72.53993,41.12428 -20.93506,32.09338 -16.30222,78.87887 11.9526,105.00889 17.78396,17.64546 47.32429,28.38987 70.47914,14.65453 18.11896,-10.30141 37.47279,-28.35865 34.11759,-51.24507 -2.7966,-24.34257 -27.09487,-39.71896 -49.50485,-43.32246 -11.23689,-1.98376 -26.68395,-3.56542 -32.78951,8.47215 -10.30327,20.28551 7.99079,50.57089 31.55304,46.16178 9.52371,-1.03872 20.97269,-11.33786 14.74612,-21.24908 -3.1009,-5.73596 -10.52579,-6.52504 -15.11249,-2.15238 -5.00943,2.90132 -14.57349,0.92617 -11.49464,-6.59454 2.68015,-6.42767 12.54472,-2.35056 17.53964,-1.28227 7.86251,1.87081 16.73474,6.76638 15.89101,16.25737 1.31927,21.19687 -22.8797,37.01382 -41.9486,28.66793 -18.42352,-5.7042 -24.07431,-27.60457 -22.76032,-45.06269 -0.1168,-20.71682 8.5741,-41.65026 26.88191,-52.57314 12.43142,-8.48043 27.41747,-12.92475 39.65883,-21.38645 5.40747,-8.29659 -8.9417,-16.70129 -16.66954,-15.47885 z"
       style="font-style:normal;font-variant:normal;font-weight:bold;font-stretch:normal;font-size:144.08859253px;line-height:125%;font-family:kabayan;-inkscape-font-specification:'kabayan Bold';letter-spacing:0px;word-spacing:0px;opacity:0.5;fill:#dc3535;fill-opacity:1;stroke:none" />
  </g>
  <g
     inkscape:groupmode="layer"
     id="layer5"
     inkscape:label="i"
     style="display:inline">
    <path
       transform="translate(0,-332.36216)"
       inkscape:connector-curvature="0"
       id="path3070"
       d="m 702.04339,612.20101 c -15.10044,1.12279 -18.55765,24.32424 -5.40386,30.86611 11.20937,6.43879 23.98031,-6.40501 20.92851,-17.90601 -1.24362,-7.26737 -7.82643,-13.68947 -15.52465,-12.9601 z m -5.0375,35.26247 c -10.6049,2.18568 -10.49947,15.87262 -12.13578,24.36316 -3.2831,32.53117 -8.55225,67.36277 4.21318,98.59753 3.2604,10.0168 13.66273,19.22464 24.54634,14.74613 10.80133,-1.8991 5.62372,-14.50462 5.45833,-21.82587 -2.2417,-26.53308 -4.45039,-53.34077 -3.62651,-79.88575 -1.96806,-11.03821 -1.87767,-23.83759 -9.15909,-32.74372 -2.7038,-1.89684 -5.88773,-3.63376 -9.29647,-3.25148 z"
       style="font-style:normal;font-variant:normal;font-weight:bold;font-stretch:normal;font-size:144.08859253px;line-height:125%;font-family:kabayan;-inkscape-font-specification:'kabayan Bold';letter-spacing:0px;word-spacing:0px;opacity:0.5;fill:#dc3535;fill-opacity:1;stroke:none" />
    <path
       transform="translate(0,-332.36216)"
       inkscape:connector-curvature="0"
       id="path3078"
       d="m 703.09668,615.08612 c -6.51544,0 -11.76942,6.00684 -11.76942,13.37226 0,7.36543 5.25398,13.32647 11.76942,13.32647 6.51545,0 11.81522,-5.96104 11.81522,-13.32647 0,-7.36542 -5.29977,-13.37226 -11.81522,-13.37226 z m -5.72442,35.26247 c -1.83221,0.15011 -3.42361,1.17496 -4.71693,3.0225 -2.67464,3.66016 -4.68311,13.5786 -6.09079,29.76702 -0.56309,6.75707 -1.08895,11.51865 -1.51125,14.33396 -0.14083,6.05321 -0.53263,13.83256 -1.23648,23.26408 -0.14083,2.95624 -0.0983,6.58129 0.18319,10.9451 0.28152,4.36393 0.84981,9.39014 1.69443,15.0209 0.84461,5.63084 1.98116,10.83008 3.38886,15.61623 1.54845,4.7862 3.51451,9.15595 5.90761,13.09749 2.53384,3.94157 5.50581,6.38768 8.88431,7.37306 3.51922,0.9854 7.58193,0.41713 12.22737,-1.69443 0.98536,-1.26691 1.46543,-2.22703 1.46546,-2.9309 -2.81543,-27.30936 -4.56266,-52.95952 -5.26648,-76.89051 -0.14083,-5.20839 -0.14083,-8.70282 0,-10.53294 0.14069,-1.8299 0.27133,-3.05465 0.41216,-3.61784 0.14069,-0.56298 0.0983,-1.65372 -0.18318,-3.34306 -0.14083,-1.8299 -0.57844,-5.28194 -1.28227,-10.34977 -0.5631,-1.97065 -1.04317,-4.24373 -1.46545,-6.77772 -0.42233,-2.53372 -0.9482,-4.54219 -1.51125,-6.09079 -0.42233,-1.6891 -1.25185,-3.87398 -2.51875,-6.54874 -3.24652,-2.61297 -6.02486,-3.85664 -8.38056,-3.66364 z"
       style="font-style:normal;font-variant:normal;font-weight:bold;font-stretch:normal;font-size:144.08859253px;line-height:125%;font-family:kabayan;-inkscape-font-specification:'kabayan Bold';letter-spacing:0px;word-spacing:0px;fill:#dc3535;fill-opacity:1;stroke:none" />
  </g>
  <g
     inkscape:groupmode="layer"
     id="layer6"
     inkscape:label="B"
     style="display:inline">
    <path
       transform="translate(0,-332.36216)"
       inkscape:connector-curvature="0"
       id="path3066"
       d="m 763.45504,632.48838 c -6.50687,1.11644 -15.0417,-0.79822 -20.28611,2.02788 -14.30495,30.39533 -18.12345,64.89454 -17.61174,98.26257 1.21981,18.98063 3.05249,42.68703 20.77037,53.67374 14.41874,6.78702 31.0594,0.48059 44.84362,-4.90259 20.93426,-8.69461 42.45876,-26.85446 41.43494,-51.65475 -4.3e-4,-13.54221 -9.25642,-26.76887 -22.21078,-30.91191 13.31,-13.41964 13.5966,-37.29807 -0.22897,-50.37495 -11.68525,-12.95322 -29.62638,-17.24944 -46.71133,-16.11999 z m 9.80022,19.78362 c 7.89424,1.67366 18.72328,5.73085 20.14998,14.42556 -4.55654,12.05256 -16.21036,22.36614 -25.09588,28.98849 -1.65748,-14.38804 -0.16416,-30.32314 4.9459,-43.41405 z m 21.61544,63.47245 c 7.17853,-0.27769 14.28748,7.57325 9.66283,14.47135 -6.68969,13.41301 -19.89905,23.15102 -33.38486,29.03429 -4.74534,1.62693 -2.69823,-6.83517 -3.89261,-9.47965 -1.43512,-7.19775 0.24189,-14.21396 6.68613,-18.40976 6.30006,-5.74441 13.38059,-11.49169 20.92851,-15.61623 z"
       style="font-style:normal;font-variant:normal;font-weight:bold;font-stretch:normal;font-size:144.08859253px;line-height:125%;font-family:kabayan;-inkscape-font-specification:'kabayan Bold';letter-spacing:0px;word-spacing:0px;opacity:0.5;fill:#dc3535;fill-opacity:1;stroke:none" />
    <path
       transform="translate(0,-332.36216)"
       d="m 745.65272,636.16851 c 2.39307,1.7e-4 6.12347,-0.14053 11.19122,-0.4223 5.06769,-0.28139 8.93886,-0.42216 11.61353,-0.42231 13.23232,1.5e-4 23.93085,2.95632 32.09558,8.86851 11.40228,8.16481 17.10347,18.01869 17.10356,29.56171 -9e-5,9.57248 -4.15281,18.37059 -12.45815,26.3944 0.42223,0.28162 1.478,0.70393 3.16733,1.26693 1.68916,0.56316 2.8857,0.98547 3.58963,1.26693 0.84454,0.28161 2.04108,0.91508 3.58964,1.9004 1.68914,0.98547 3.09684,2.04124 4.2231,3.16732 1.12607,1.12623 2.393,2.67471 3.80079,4.6454 1.54837,1.97086 2.95607,4.22318 4.22311,6.75697 1.26683,4.22316 1.90028,8.37588 1.90039,12.45816 -1.1e-4,6.3347 -1.54858,12.3878 -4.64542,18.15934 -2.95626,5.63083 -6.82743,10.48738 -11.61352,14.5697 -4.78626,4.08234 -10.13553,7.74237 -16.04779,10.98007 -5.91241,3.09694 -11.68398,5.56041 -17.31472,7.39043 -5.63085,1.68924 -10.9801,2.81539 -16.04779,3.37847 -1.83004,0.28154 -3.58967,0.42231 -5.27887,0.42231 -5.49007,0 -10.27624,-1.61886 -14.35855,-4.85657 -3.94157,-3.2377 -7.1089,-7.74234 -9.50197,-13.51393 -2.25235,-5.91231 -3.94157,-12.45811 -5.06773,-19.63742 -0.9854,-7.17923 -1.47809,-15.06234 -1.47809,-23.64937 0,-16.61078 1.68923,-33.43279 5.06773,-50.46607 3.51923,-17.03305 7.60156,-29.77273 12.24699,-38.21908 m 52.57762,108.11142 c 7.03842,-7.46076 10.55766,-14.07696 10.55775,-19.84859 -9e-5,-3.09686 -1.47816,-5.77149 -4.43425,-8.02388 -2.81548,-2.39303 -5.84203,-3.58957 -9.07967,-3.58964 -0.70392,7e-5 -1.33739,0.0705 -1.90039,0.21116 -12.10628,7.46088 -21.74903,15.55515 -28.92825,24.28283 -0.28159,2.67468 -0.42236,5.13815 -0.42232,7.39043 -4e-5,4.36392 0.70382,9.85394 2.11156,16.4701 0.7038,0.84464 1.75958,1.26696 3.16733,1.26693 3.23765,3e-5 7.95345,-2.11153 14.14738,-6.33466 6.33458,-4.36382 11.26154,-8.3054 14.78086,-11.82468 m -27.87247,-45.82065 c 1.12611,-1.12607 3.5192,-3.30801 7.17927,-6.54582 3.65997,-3.37838 6.3346,-5.91224 8.0239,-7.60158 1.68917,-1.82991 3.58957,-4.29338 5.70118,-7.39043 2.25226,-3.2376 3.94149,-6.47531 5.06773,-9.71313 0.14069,-3.51914 -1.47816,-6.68645 -4.85657,-9.50198 -3.23777,-2.95604 -6.75703,-5.0676 -10.55775,-6.33466 -3.66008,-1.40756 -6.68663,-2.11141 -9.07968,-2.11154 l -0.21115,0 c -1.68929,1.83015 -3.30815,6.82747 -4.85657,14.99201 -1.40775,8.16478 -2.11159,15.76635 -2.11155,22.80474 -4e-5,8.4463 1.12612,12.6694 3.37848,12.66932 0.70381,8e-5 1.47804,-0.42223 2.32271,-1.26693"
       style="font-style:normal;font-variant:normal;font-weight:bold;font-stretch:normal;font-size:144.08859253px;line-height:125%;font-family:kabayan;-inkscape-font-specification:'kabayan Bold';letter-spacing:0px;word-spacing:0px;fill:#dc3535;fill-opacity:1;stroke:none"
       id="path3080"
       inkscape:connector-curvature="0" />
  </g>
</svg>
